<?xml version="1.0" standalone="no"?>
<!DOCTYPE svg PUBLIC "-//W3C//DTD SVG 20010904//EN"
 "http://www.w3.org/TR/2001/REC-SVG-20010904/DTD/svg10.dtd">
<svg version="1.0" xmlns="http://www.w3.org/2000/svg"
 width="1179.000000pt" height="1179.000000pt" viewBox="0 0 1179.000000 1179.000000"
 preserveAspectRatio="xMidYMid meet">

<g transform="translate(0.000000,1179.000000) scale(0.100000,-0.100000)"
fill="#ffffff" stroke="none">
<path d="M5454 10834 c-544 -47 -1097 -178 -1529 -361 -185 -78 -511 -240
-640 -318 -254 -153 -551 -367 -770 -555 -149 -128 -428 -407 -558 -560 -508
-592 -877 -1303 -1070 -2065 -75 -291 -125 -596 -147 -883 -19 -261 -12 -768
14 -957 3 -16 7 -52 11 -80 80 -632 244 -1165 528 -1714 173 -336 390 -662
645 -971 125 -151 453 -478 617 -614 379 -316 739 -546 1160 -743 513 -239
1025 -384 1610 -454 215 -26 660 -36 902 -20 1252 82 2427 621 3333 1530 449
450 829 1016 1083 1611 498 1169 539 2521 112 3725 -270 763 -668 1390 -1236
1952 -203 200 -327 307 -540 467 -651 489 -1387 812 -2159 945 -439 76 -960
101 -1366 65z m881 -410 c462 -41 889 -143 1295 -309 420 -172 767 -367 1115
-628 179 -134 274 -216 444 -382 657 -642 1086 -1389 1306 -2278 163 -656 187
-1267 74 -1932 -92 -549 -316 -1158 -596 -1618 -220 -363 -414 -616 -678 -886
-505 -517 -1045 -873 -1740 -1149 -317 -126 -729 -225 -1145 -278 -197 -24
-714 -30 -925 -10 -646 62 -1203 224 -1770 516 -536 276 -1077 707 -1449 1154
-350 420 -592 820 -788 1306 -124 307 -254 785 -297 1095 -119 841 -4 1714
329 2507 183 436 432 844 739 1213 631 758 1540 1329 2485 1559 346 85 616
123 941 135 253 8 454 4 660 -15z"/>
<path d="M7030 8984 c-103 -28 -201 -110 -257 -216 -28 -53 -28 -53 -31 -280
-2 -126 -1 -228 1 -228 2 0 49 -11 105 -25 56 -14 106 -25 112 -25 6 0 10 73
10 216 0 244 5 265 77 314 l37 25 680 3 c375 1 691 0 703 -3 21 -5 22 -8 25
-252 3 -219 5 -252 22 -283 26 -49 74 -98 121 -123 38 -21 56 -22 297 -25
l258 -3 2 -516 3 -516 105 -93 c58 -51 108 -93 113 -93 4 -1 7 299 7 667 0
647 -1 668 -20 697 -11 17 -182 193 -380 391 -325 327 -364 363 -404 373 -31
8 -270 11 -788 10 -621 0 -752 -3 -798 -15z m1848 -515 c95 -94 172 -174 172
-179 0 -5 -58 -9 -130 -9 -141 -1 -189 10 -210 49 -12 23 -22 310 -10 310 3 0
84 -77 178 -171z"/>
<path d="M6055 8099 c-455 -28 -978 -234 -1398 -551 -322 -243 -526 -482 -690
-809 -65 -131 -104 -235 -147 -393 -50 -189 -64 -307 -64 -536 1 -250 24 -404
90 -608 44 -135 146 -360 207 -457 110 -176 257 -357 383 -472 47 -42 81 -79
75 -81 -12 -4 -164 52 -336 125 -189 79 -381 182 -665 356 -63 39 -103 67
-300 211 -346 253 -613 501 -977 906 -13 14 -23 27 -23 30 0 3 80 91 178 195
298 317 612 597 888 792 274 193 521 345 694 426 101 47 109 54 222 171 131
138 264 251 417 356 146 100 339 215 449 267 50 24 92 45 92 47 0 11 -437 -98
-603 -150 -322 -101 -759 -296 -1057 -472 -404 -240 -796 -541 -1135 -871
-127 -124 -184 -183 -325 -337 -73 -78 -281 -333 -329 -401 l-22 -33 22 -32
c93 -135 421 -501 624 -698 296 -287 556 -500 851 -698 623 -417 1319 -699
1999 -809 152 -24 453 -25 544 0 123 33 166 65 421 306 85 81 181 171 213 200
31 30 55 56 53 59 -3 2 -40 -5 -83 -16 -163 -43 -252 -54 -428 -54 -505 1
-913 171 -1272 529 -309 310 -484 709 -509 1163 -20 355 114 786 339 1090 210
284 534 522 858 631 441 147 941 119 1345 -77 189 -92 428 -272 556 -417 410
-470 548 -1091 371 -1676 -56 -188 -149 -367 -288 -556 -54 -74 -403 -429
-851 -865 -98 -96 -401 -393 -673 -660 -271 -267 -499 -489 -507 -493 -12 -7
-14 32 -14 253 l0 260 -1207 0 c-840 0 -1226 3 -1270 11 -79 14 -149 58 -177
114 -20 39 -21 56 -24 622 l-3 582 -101 85 c-56 47 -104 86 -107 86 -3 0 -4
-314 -1 -697 5 -660 6 -700 24 -743 58 -135 174 -237 306 -270 31 -7 389 -11
1185 -13 l1140 -2 3 -479 2 -478 43 37 c23 21 107 101 187 179 309 299 448
433 517 496 67 62 324 306 588 560 66 63 154 147 195 185 41 38 134 126 205
195 72 69 213 203 315 299 281 265 469 458 532 546 210 297 338 603 394 940
18 110 24 388 11 520 -10 104 -31 231 -56 325 -22 87 -113 334 -147 402 -67
132 -181 300 -304 448 -42 51 -209 217 -232 231 -6 4 -8 11 -4 17 10 17 130
-27 396 -145 312 -139 649 -347 986 -608 242 -189 306 -244 514 -450 188 -185
239 -239 344 -358 51 -60 56 -69 45 -85 -171 -217 -566 -603 -797 -780 -406
-311 -627 -455 -936 -609 -108 -54 -115 -59 -266 -213 -85 -86 -248 -244 -362
-350 -115 -106 -208 -194 -208 -196 0 -10 333 93 490 152 258 96 567 237 725
330 608 358 1006 673 1470 1165 89 94 330 380 418 497 13 17 -52 109 -189 267
-24 28 -50 59 -58 70 -8 11 -18 16 -23 12 -4 -5 0 -14 10 -21 9 -7 17 -17 17
-22 0 -5 16 -26 35 -48 19 -21 35 -41 35 -44 0 -7 -63 49 -68 61 -2 4 -13 7
-25 6 -12 0 -16 -3 -10 -6 10 -3 10 -8 -1 -19 -8 -8 -20 -14 -26 -14 -6 0 -8
-4 -5 -10 3 -5 -1 -10 -10 -10 -9 0 -13 5 -9 11 4 7 1 10 -7 7 -8 -3 -13 -15
-11 -28 4 -21 2 -22 -12 -10 -13 10 -19 11 -29 1 -9 -10 -8 -11 6 -6 10 5 17
2 17 -5 0 -8 -8 -10 -22 -5 -35 10 -68 7 -84 -10 -9 -8 -22 -15 -30 -15 -21 0
-7 20 14 21 10 0 12 3 5 5 -17 7 -53 -14 -53 -31 0 -7 8 -16 18 -18 9 -3 4 -5
-13 -4 -23 2 -30 -2 -29 -15 1 -10 0 -18 -2 -18 -5 0 -60 57 -123 126 -24 27
-60 66 -80 87 -26 28 -31 37 -18 37 9 0 17 -7 17 -15 0 -8 4 -15 9 -15 5 0 17
-7 25 -16 14 -14 18 -14 31 -1 13 13 13 16 -1 27 -8 7 -12 15 -10 18 3 2 13
-3 22 -12 12 -12 20 -14 27 -7 8 8 5 15 -9 26 -10 8 -14 15 -8 15 6 0 17 -7
24 -15 15 -18 61 -12 94 11 18 12 17 13 -10 11 -16 -1 -35 -8 -43 -15 -7 -7
-16 -10 -20 -7 -11 12 29 33 51 27 13 -3 19 -1 15 5 -9 14 16 24 32 14 7 -4
13 -17 14 -29 0 -11 4 -19 8 -17 3 3 4 17 1 31 -4 21 -2 25 8 19 10 -6 12 -4
7 9 -4 10 -3 15 3 11 6 -3 13 0 16 8 3 9 17 18 32 22 15 4 30 12 34 18 5 8 27
-7 65 -43 83 -79 32 -15 -131 164 -77 85 -347 339 -506 476 -202 175 -521 403
-775 555 -411 246 -723 382 -1230 538 -350 107 -718 155 -1040 136z m165 -23
c-7 -6 -169 -10 -176 -4 -2 3 37 6 88 7 51 1 90 0 88 -3z m73 -3 c-13 -2 -33
-2 -45 0 -13 2 -3 4 22 4 25 0 35 -2 23 -4z m-285 -15 c-3 -9 -31 -14 -84 -15
-88 -2 -88 3 1 16 86 12 87 12 83 -1z m519 -4 c-3 -3 -12 -4 -19 -1 -8 3 -5 6
6 6 11 1 17 -2 13 -5z m137 -15 c42 -6 73 -15 70 -20 -2 -4 -17 -4 -31 2 -15
5 -32 8 -38 5 -6 -2 -33 2 -61 9 -61 17 -37 18 60 4z m-1676 -24 c-9 -10 -98
-33 -98 -26 0 4 17 12 38 18 42 12 68 15 60 8z m1862 -15 c8 -5 11 -12 8 -16
-10 -9 -38 3 -38 16 0 12 10 13 30 0z m77 -16 c-3 -3 -12 -4 -19 -1 -8 3 -5 6
6 6 11 1 17 -2 13 -5z m-1392 -20 c-48 -19 -92 -29 -84 -20 9 10 82 35 104 35
11 0 2 -7 -20 -15z m55 -18 c0 -3 -4 -8 -10 -11 -5 -3 -10 -1 -10 4 0 6 5 11
10 11 6 0 10 -2 10 -4z m-150 -16 c0 -5 -11 -10 -24 -10 -13 0 -33 -2 -43 -5
-10 -3 -4 1 12 9 36 18 55 20 55 6z m1680 0 c12 -8 11 -10 -7 -10 -12 0 -25 5
-28 10 -8 13 15 13 35 0z m45 -18 c-3 -3 -11 0 -18 7 -9 10 -8 11 6 5 10 -3
15 -9 12 -12z m-1825 -12 c0 -5 -5 -10 -11 -10 -5 0 -7 5 -4 10 3 6 8 10 11
10 2 0 4 -4 4 -10z m1875 0 c3 -5 -1 -10 -9 -10 -9 0 -16 5 -16 10 0 6 4 10 9
10 6 0 13 -4 16 -10z m-1915 -20 c-20 -13 -33 -13 -25 0 3 6 14 10 23 10 15 0
15 -2 2 -10z m1957 4 c-3 -3 -12 -4 -19 -1 -8 3 -5 6 6 6 11 1 17 -2 13 -5z
m43 -14 c12 -8 11 -10 -7 -10 -13 0 -23 5 -23 10 0 13 11 13 30 0z m-2070 -14
c0 -8 -63 -36 -68 -31 -3 2 10 11 29 19 39 17 39 17 39 12z m1990 -6 c12 -8
11 -10 -7 -10 -13 0 -23 5 -23 10 0 13 11 13 30 0z m60 0 c12 -8 9 -10 -13
-10 -16 0 -26 4 -22 10 8 12 16 12 35 0z m70 0 c0 -5 -2 -10 -4 -10 -3 0 -8 5
-11 10 -3 6 -1 10 4 10 6 0 11 -4 11 -10z m-2067 -7 c-7 -2 -19 -2 -25 0 -7 3
-2 5 12 5 14 0 19 -2 13 -5z m2162 -23 c3 -5 2 -10 -4 -10 -5 0 -13 5 -16 10
-3 6 -2 10 4 10 5 0 13 -4 16 -10z m-2308 -16 c-3 -3 -12 -4 -19 -1 -8 3 -5 6
6 6 11 1 17 -2 13 -5z m2363 -4 c0 -5 -7 -7 -15 -4 -8 4 -15 8 -15 10 0 2 7 4
15 4 8 0 15 -4 15 -10z m37 -16 c-3 -3 -12 -4 -19 -1 -8 3 -5 6 6 6 11 1 17
-2 13 -5z m-2472 -14 c-3 -5 -12 -10 -18 -10 -7 0 -6 4 3 10 19 12 23 12 15 0z
m2600 -31 c102 -38 148 -59 141 -66 -3 -3 -30 4 -60 17 -43 17 -59 19 -75 10
-23 -12 -118 -4 -127 11 -8 13 41 11 70 -2 20 -10 28 -9 41 5 15 15 15 16 -7
16 -13 0 -28 4 -33 9 -6 5 -21 11 -34 13 -14 1 -27 9 -29 17 -3 10 0 12 14 7
11 -4 55 -21 99 -37z m-140 1 c3 -6 -1 -7 -9 -4 -18 7 -21 14 -7 14 6 0 13 -4
16 -10z m-3410 -20 c3 -5 -2 -10 -12 -10 -10 0 -29 -3 -43 -6 -22 -4 -21 -3 5
10 37 18 42 19 50 6z m3410 -30 c3 -5 -1 -10 -9 -10 -9 0 -16 5 -16 10 0 6 4
10 9 10 6 0 13 -4 16 -10z m-3508 -6 c-3 -3 -12 -4 -19 -1 -8 3 -5 6 6 6 11 1
17 -2 13 -5z m3378 -14 c3 -5 1 -10 -4 -10 -6 0 -11 5 -11 10 0 6 2 10 4 10 3
0 8 -4 11 -10z m-1198 -6 c-3 -3 -12 -4 -19 -1 -8 3 -5 6 6 6 11 1 17 -2 13
-5z m1700 -40 c-7 -7 -37 7 -37 17 0 6 9 5 21 -1 11 -7 19 -14 16 -16z m-117
6 c0 -5 -5 -10 -11 -10 -5 0 -7 5 -4 10 3 6 8 10 11 10 2 0 4 -4 4 -10z
m-2986 -25 c-10 -8 -23 -14 -29 -14 -5 0 -1 6 9 14 11 8 24 15 30 15 5 0 1 -7
-10 -15z m1164 4 c-10 -5 -32 -5 -55 0 -38 8 -37 8 17 9 37 0 49 -3 38 -9z
m1987 1 c3 -5 -1 -10 -9 -10 -8 0 -18 5 -21 10 -3 6 1 10 9 10 8 0 18 -4 21
-10z m-1684 -35 c45 -8 84 -17 87 -19 2 -3 13 -1 22 4 13 7 20 6 23 -4 3 -7
22 -16 41 -20 20 -4 36 -12 36 -18 0 -5 -8 -7 -17 -4 -9 4 -79 21 -155 38 -76
17 -138 36 -138 40 0 5 4 6 10 3 5 -3 46 -12 91 -20z m1584 15 c-3 -5 -13 -10
-21 -10 -8 0 -14 5 -14 10 0 6 9 10 21 10 11 0 17 -4 14 -10z m-3105 -14 c0
-3 -4 -8 -10 -11 -5 -3 -10 -1 -10 4 0 6 5 11 10 11 6 0 10 -2 10 -4z m-37
-36 c-3 -11 -10 -20 -17 -20 -6 0 -23 -10 -38 -23 -14 -12 -36 -29 -48 -37
-35 -24 -81 -63 -118 -98 -42 -40 -53 -37 -12 4 46 46 85 79 215 179 24 19 24
19 18 -5z m764 14 c-3 -3 -12 -4 -19 -1 -8 3 -5 6 6 6 11 1 17 -2 13 -5z
m1043 -10 c0 -2 -7 -4 -15 -4 -8 0 -15 4 -15 10 0 5 7 7 15 4 8 -4 15 -8 15
-10z m-2225 -14 c-3 -5 -11 -10 -16 -10 -6 0 -7 5 -4 10 3 6 11 10 16 10 6 0
7 -4 4 -10z m3805 0 c0 -5 -4 -10 -10 -10 -5 0 -10 5 -10 10 0 6 5 10 10 10 6
0 10 -4 10 -10z m-800 -14 c0 -3 -4 -8 -10 -11 -5 -3 -10 -1 -10 4 0 6 5 11
10 11 6 0 10 -2 10 -4z m-734 -22 c13 -3 24 -10 24 -15 0 -14 -17 -10 -52 12
-18 12 -25 18 -15 15 11 -3 30 -9 43 -12z m-1861 -4 c3 -6 -1 -7 -9 -4 -18 7
-21 14 -7 14 6 0 13 -4 16 -10z m3522 -21 c69 -37 195 -120 191 -125 -5 -4
-75 20 -84 29 -11 10 -64 8 -64 -2 0 -5 9 -7 20 -4 11 3 20 0 20 -6 0 -6 9
-11 21 -11 11 0 18 -4 15 -8 -7 -11 -77 -5 -90 8 -5 5 -17 10 -25 9 -11 0 -10
-3 4 -9 18 -8 18 -9 2 -9 -11 -1 -17 -7 -15 -18 2 -12 -4 -18 -17 -18 -11 -1
-19 -6 -18 -12 1 -7 -6 -9 -19 -5 l-22 5 21 10 c39 17 35 36 -13 57 -25 12
-53 18 -63 15 -10 -3 -24 1 -31 10 -15 18 1 20 18 3 9 -9 12 -9 12 0 0 7 12
12 28 12 21 0 24 2 12 10 -8 5 -10 10 -4 10 5 0 15 -5 22 -12 9 -9 12 -8 12 5
0 9 -6 17 -12 17 -7 0 -2 9 11 19 17 13 20 20 12 26 -7 4 -20 0 -30 -9 -20
-18 -31 -20 -31 -6 0 6 7 10 15 10 9 0 18 7 21 15 8 21 15 19 81 -16z m-3542
1 c3 -5 -1 -10 -9 -10 -9 0 -16 5 -16 10 0 6 4 10 9 10 6 0 13 -4 16 -10z
m2685 0 c12 -8 11 -10 -7 -10 -13 0 -23 5 -23 10 0 13 11 13 30 0z m-730 -10
c0 -5 12 -10 27 -10 18 0 24 -3 17 -10 -7 -7 -22 -6 -47 5 -41 17 -47 25 -17
25 11 0 20 -4 20 -10z m830 -33 c16 -6 20 -11 12 -14 -8 -3 -19 0 -25 6 -6 6
-19 11 -28 11 -10 0 -21 5 -25 11 -7 11 13 7 66 -14z m150 -7 c0 -5 -4 -10 -9
-10 -6 0 -13 5 -16 10 -3 6 1 10 9 10 9 0 16 -4 16 -10z m-2523 -6 c-3 -3 -12
-4 -19 -1 -8 3 -5 6 6 6 11 1 17 -2 13 -5z m1620 0 c-3 -3 -12 -4 -19 -1 -8 3
-5 6 6 6 11 1 17 -2 13 -5z m563 -16 c0 -13 -23 -5 -28 10 -2 7 2 10 12 6 9
-3 16 -11 16 -16z m370 18 c0 -3 -4 -8 -10 -11 -5 -3 -10 -1 -10 4 0 6 5 11
10 11 6 0 10 -2 10 -4z m-885 -16 c-3 -5 3 -10 15 -10 12 0 18 -4 15 -10 -3
-5 -1 -10 6 -10 7 0 10 -2 7 -5 -7 -8 -78 26 -78 37 0 4 9 8 21 8 11 0 17 -4
14 -10z m55 0 c8 -5 11 -10 5 -10 -5 0 -17 5 -25 10 -8 5 -10 10 -5 10 6 0 17
-5 25 -10z m445 -30 c-3 -4 4 -10 15 -13 13 -3 18 -10 14 -21 -6 -16 -36 -24
-32 -8 4 11 -35 52 -49 52 -13 0 -17 12 -7 22 8 8 65 -22 59 -32z m280 26 c15
-8 35 -12 44 -9 14 4 14 3 0 -6 -13 -8 -27 -7 -53 4 -35 15 -46 25 -27 25 5 0
21 -6 36 -14z m-2955 -16 c-8 -5 -17 -7 -19 -4 -3 3 1 9 9 14 8 5 17 7 19 4 3
-3 -1 -9 -9 -14z m470 16 c0 -2 -7 -6 -15 -10 -8 -3 -15 -1 -15 4 0 6 7 10 15
10 8 0 15 -2 15 -4z m-45 -26 c-3 -5 -11 -10 -16 -10 -6 0 -36 -18 -67 -41
-32 -22 -58 -35 -60 -29 -2 6 -2 12 -1 13 75 40 104 58 102 67 -2 5 9 10 23
10 14 0 23 -4 19 -10z m2315 -5 c7 -9 10 -18 7 -22 -8 -7 -37 15 -37 28 0 14
16 11 30 -6z m295 -5 c3 -6 -1 -7 -9 -4 -18 7 -21 14 -7 14 6 0 13 -4 16 -10z
m484 -14 c10 -12 6 -14 -24 -13 -41 1 -43 4 -12 17 12 5 23 9 23 9 1 1 7 -5
13 -13z m-889 -7 c0 -6 7 -8 16 -5 8 3 12 2 9 -4 -9 -15 -32 -12 -39 5 -3 8
-1 15 4 15 6 0 10 -5 10 -11z m450 1 c0 -5 -2 -10 -4 -10 -3 0 -8 5 -11 10 -3
6 -1 10 4 10 6 0 11 -4 11 -10z m504 1 c19 -7 19 -8 0 -16 -20 -9 -29 -12 -42
-14 -4 0 -8 -10 -8 -20 0 -11 4 -17 8 -15 5 3 14 -1 22 -9 12 -11 11 -15 -5
-25 -23 -15 -39 -15 -39 -1 0 5 4 8 8 5 4 -2 14 0 22 5 11 8 3 9 -25 4 -22 -4
-43 -12 -47 -18 -4 -7 -11 -7 -23 3 -15 12 -15 14 -1 22 9 5 21 6 28 2 6 -4 8
-3 5 3 -4 6 0 14 9 17 19 7 9 26 -13 26 -9 0 -13 -3 -10 -7 4 -3 2 -12 -4 -19
-8 -10 -16 -11 -29 -4 -13 7 -21 7 -25 0 -3 -5 1 -10 10 -10 9 0 13 -5 10 -10
-4 -6 -11 -8 -16 -5 -5 4 -9 1 -9 -5 0 -7 7 -10 15 -7 8 4 17 2 20 -3 4 -6 1
-10 -4 -10 -6 0 -11 -4 -11 -8 0 -4 16 -8 35 -9 25 -1 35 3 35 14 0 13 2 13
17 2 15 -13 15 -14 0 -17 -10 -2 -17 -8 -17 -13 0 -13 -28 -11 -32 3 -3 8 -15
4 -38 -12 l-33 -24 -71 38 c-39 21 -93 50 -121 64 -49 26 -49 27 -21 30 19 2
32 -2 38 -12 5 -9 16 -16 24 -16 8 0 12 5 9 10 -3 6 1 10 10 10 9 0 13 -4 10
-10 -12 -19 21 -10 38 11 13 15 25 19 43 15 13 -4 24 -3 23 1 -4 22 3 33 18
33 15 0 15 -1 -2 -13 -15 -12 -16 -15 -4 -23 8 -5 30 -9 49 -10 l35 -2 -30 25
c-20 16 -23 21 -8 14 39 -20 143 -10 111 10 -10 7 -10 9 2 8 8 0 24 -4 34 -8z
m-479 -11 c3 -5 1 -10 -4 -10 -6 0 -11 5 -11 10 0 6 2 10 4 10 3 0 8 -4 11
-10z m215 -4 c0 -15 -22 -26 -48 -25 -13 0 -11 3 6 11 12 6 22 15 22 20 0 4 5
8 10 8 6 0 10 -6 10 -14z m-1025 -7 c4 -5 18 -14 31 -19 13 -5 24 -14 24 -20
0 -6 -18 0 -40 12 -22 13 -40 26 -40 31 0 11 18 9 25 -4z m498 -14 c10 -14 14
-25 9 -25 -6 0 -13 7 -16 16 -3 8 -11 12 -17 8 -7 -4 -9 -3 -5 4 3 5 0 13 -6
15 -9 4 -8 6 2 6 8 0 23 -11 33 -24z m462 15 c-3 -5 -10 -10 -16 -10 -5 0 -9
5 -9 10 0 6 7 10 16 10 8 0 12 -4 9 -10z m439 1 c3 -4 -6 -6 -19 -3 -14 2 -25
6 -25 8 0 8 39 4 44 -5z m36 -1 c0 -5 -5 -10 -11 -10 -5 0 -7 5 -4 10 3 6 8
10 11 10 2 0 4 -4 4 -10z m-3470 -55 c-7 -8 -19 -15 -27 -15 -11 0 -11 3 -1
15 18 20 45 21 28 0z m2520 5 c0 -5 -5 -10 -11 -10 -5 0 -7 5 -4 10 3 6 8 10
11 10 2 0 4 -4 4 -10z m1170 0 c0 -5 -2 -10 -4 -10 -3 0 -8 5 -11 10 -3 6 -1
10 4 10 6 0 11 -4 11 -10z m-1568 -12 c3 -9 12 -9 36 1 17 7 37 11 44 8 8 -4
5 -8 -9 -12 -26 -8 -31 -35 -8 -35 8 0 15 7 15 15 0 8 4 15 9 15 5 0 18 3 28
6 14 4 15 4 4 -4 -7 -5 -10 -15 -7 -21 4 -6 3 -11 -3 -11 -5 0 -13 -9 -16 -20
-5 -17 -9 -18 -28 -8 -31 16 -94 78 -80 78 6 0 13 -5 15 -12z m443 -18 c-10
-11 -20 -18 -23 -16 -5 6 21 35 32 36 5 0 1 -9 -9 -20z m805 16 c0 -11 -19
-15 -25 -6 -3 5 1 10 9 10 9 0 16 -2 16 -4z m-3435 -41 c-16 -13 -31 -22 -33
-20 -7 7 33 43 48 44 9 0 3 -9 -15 -24z m3400 15 c-3 -5 -14 -10 -23 -9 -14 0
-13 2 3 9 27 11 27 11 20 0z m-3478 -36 c-3 -3 -12 -4 -19 -1 -8 3 -5 6 6 6
11 1 17 -2 13 -5z m2863 -88 c0 -3 18 -31 40 -62 22 -32 38 -59 35 -62 -4 -4
-16 8 -74 78 -11 14 -20 17 -30 11 -11 -7 -9 -10 8 -16 23 -7 29 -35 7 -35 -8
0 -16 -4 -18 -8 -1 -5 -21 -7 -43 -4 -32 4 -36 6 -20 13 20 8 20 8 0 8 -17 1
-20 8 -20 41 0 22 4 40 9 40 5 0 7 2 4 5 -10 10 -38 -7 -31 -19 3 -6 0 -5 -8
2 -12 11 -12 14 1 22 13 8 13 10 1 10 -12 0 -12 3 -3 12 10 10 17 10 32 0 11
-6 30 -12 42 -11 13 0 17 3 10 6 -6 2 -10 9 -6 14 3 5 -6 9 -20 9 -28 0 -33 9
-15 27 7 7 23 -3 55 -33 24 -24 44 -45 44 -48z m-485 64 c3 -5 1 -10 -4 -10
-6 0 -11 5 -11 10 0 6 2 10 4 10 3 0 8 -4 11 -10z m970 -5 c-16 -7 -24 -14
-16 -14 8 -1 12 -3 9 -6 -3 -3 -13 -2 -23 1 -15 6 -15 8 6 20 13 7 31 13 39
13 8 0 2 -6 -15 -14z m635 6 c0 -5 9 -13 21 -16 18 -6 184 -126 199 -144 3 -4
20 -19 38 -34 30 -24 31 -27 12 -27 -12 0 -18 5 -15 10 3 6 4 10 1 10 -2 0
-12 3 -22 7 -11 4 -15 2 -11 -4 4 -6 -11 -8 -44 -5 -43 4 -49 3 -43 -12 4 -11
13 -15 23 -11 12 5 13 3 4 -6 -9 -9 -18 -7 -39 10 -29 23 -45 21 -25 -3 10
-12 6 -14 -21 -12 -18 2 -42 7 -52 11 -14 6 -17 5 -12 -3 4 -7 2 -12 -3 -12
-6 0 -11 5 -11 10 0 6 -7 10 -15 10 -8 0 -15 2 -15 4 0 2 -3 12 -7 22 -5 13
-1 12 16 -5 19 -19 25 -21 32 -10 6 10 3 16 -10 19 -10 3 -17 12 -16 21 2 14
-3 13 -35 -5 -36 -19 -72 -16 -40 4 9 6 10 10 3 10 -6 0 -15 -4 -18 -10 -3 -5
-16 -10 -28 -11 -13 0 -16 -3 -8 -6 11 -5 11 -7 0 -15 -9 -6 0 -7 26 -3 l40 5
-35 -14 -35 -14 32 -13 32 -13 -21 -18 -21 -18 21 0 c12 0 22 5 22 10 0 6 8
10 18 11 10 0 12 3 5 6 -16 6 -17 23 -2 23 6 0 17 -6 24 -14 12 -12 11 -15
-12 -21 -21 -5 -24 -8 -12 -16 12 -7 11 -9 -3 -9 -22 0 -88 -31 -88 -41 0 -13
18 -20 25 -9 3 5 12 10 18 10 8 0 7 -3 -2 -9 -8 -5 -10 -14 -6 -21 6 -9 4 -11
-6 -5 -31 19 -165 110 -179 122 -8 7 -24 19 -34 26 -18 13 -18 14 0 21 10 4
15 4 11 0 -7 -8 81 -74 100 -74 6 0 15 5 19 11 4 7 0 9 -14 5 -13 -4 -22 -1
-26 9 -5 13 0 15 29 9 23 -4 35 -2 35 5 0 11 -36 15 -92 11 -33 -2 -36 5 -7
20 15 8 24 8 34 0 8 -7 20 -10 27 -7 8 3 5 6 -6 6 -16 1 -18 3 -7 14 10 10 15
9 24 -3 7 -8 27 -23 46 -34 l33 -18 -17 26 c-10 14 -21 24 -25 21 -5 -3 -11
-1 -15 5 -3 5 0 10 8 10 8 0 17 7 21 15 3 8 14 15 25 15 15 0 19 4 14 18 -6
14 -4 15 9 4 20 -16 81 -5 74 14 -3 7 2 18 10 24 19 17 18 30 -3 30 -15 0 -16
-2 -3 -10 13 -8 11 -11 -7 -16 -13 -4 -23 -10 -23 -15 0 -5 -5 -9 -11 -9 -5 0
-7 5 -4 10 8 13 -1 13 -26 0 -12 -7 -19 -7 -19 -1 0 5 16 15 34 22 19 7 33 16
30 21 -3 4 2 8 11 8 9 0 13 5 9 11 -4 7 0 9 14 5 30 -10 36 10 10 33 -18 18
-19 21 -5 21 9 0 17 -4 17 -9z m-43 -27 c-3 -3 -12 -4 -19 -1 -8 3 -5 6 6 6
11 1 17 -2 13 -5z m-1494 -31 c-4 -9 -10 -10 -24 -2 -25 13 -24 17 5 15 14 0
22 -6 19 -13z m1457 -13 c0 -5 -5 -10 -11 -10 -5 0 -7 5 -4 10 3 6 8 10 11 10
2 0 4 -4 4 -10z m-1420 -25 c10 -12 10 -15 -3 -15 -8 0 -17 7 -21 15 -3 8 -2
15 3 15 5 0 14 -7 21 -15z m60 5 c0 -5 -4 -10 -10 -10 -5 0 -10 5 -10 10 0 6
5 10 10 10 6 0 10 -4 10 -10z m140 -5 c0 -8 -7 -15 -15 -15 -13 0 -14 3 -3 15
16 18 18 18 18 0z m-73 -21 c-3 -3 -12 -4 -19 -1 -8 3 -5 6 6 6 11 1 17 -2 13
-5z m-87 -24 c11 -11 26 -20 33 -19 10 0 10 2 0 6 -15 6 -17 33 -3 33 5 0 15
-6 22 -13 10 -11 16 -11 38 0 30 15 50 17 50 3 0 -5 -10 -11 -22 -11 -16 -1
-18 -3 -6 -6 9 -2 30 3 47 11 16 9 36 16 43 16 7 -1 0 -7 -17 -16 -18 -8 -22
-13 -10 -11 26 5 51 -19 29 -27 -9 -3 -12 -1 -9 4 10 16 -11 12 -25 -5 -7 -8
-9 -15 -4 -15 4 0 3 -5 -3 -11 -13 -13 -6 -38 16 -57 14 -12 13 -13 -10 -8
-14 3 -34 -1 -45 -9 -18 -12 -23 -11 -45 13 -42 47 -109 130 -109 136 0 11 10
6 30 -14z m1217 14 c-3 -3 -12 -4 -19 -1 -8 3 -5 6 6 6 11 1 17 -2 13 -5z m97
-25 c-3 -5 -9 -7 -14 -4 -4 3 -13 -2 -20 -10 -7 -8 -17 -15 -23 -15 -5 0 1 9
14 21 13 12 23 26 21 32 -2 6 4 5 12 -2 9 -7 13 -17 10 -22z m-966 -28 c-6
-11 -23 -22 -37 -24 -24 -5 -25 -4 -6 9 11 7 25 18 30 23 17 17 26 12 13 -8z
m783 -4 c-10 -9 -11 -8 -5 6 3 10 9 15 12 12 3 -3 0 -11 -7 -18z m-4208 -2
c-3 -9 -8 -14 -10 -11 -3 3 -2 9 2 15 9 16 15 13 8 -4z m3357 -12 c0 -17 -8
-16 -26 1 -12 13 -12 15 6 13 11 -1 20 -7 20 -14z m820 -3 c0 -5 -2 -10 -4
-10 -3 0 -8 5 -11 10 -3 6 -1 10 4 10 6 0 11 -4 11 -10z m-4200 -25 c0 -8 -4
-15 -10 -15 -5 0 -7 7 -4 15 4 8 8 15 10 15 2 0 4 -7 4 -15z m4875 -15 c3 -5
1 -10 -4 -10 -6 0 -11 5 -11 10 0 6 2 10 4 10 3 0 8 -4 11 -10z m-4910 -33
c-8 -13 -13 -26 -10 -29 3 -3 -1 -8 -9 -11 -13 -5 -13 -1 1 28 9 19 20 35 25
35 5 0 2 -10 -7 -23z m4880 13 c3 -5 2 -10 -4 -10 -5 0 -13 5 -16 10 -3 6 -2
10 4 10 5 0 13 -4 16 -10z m-200 -20 c-3 -5 -12 -10 -18 -10 -7 0 -6 4 3 10
19 12 23 12 15 0z m70 0 c3 -6 -1 -7 -9 -4 -18 7 -21 14 -7 14 6 0 13 -4 16
-10z m-1471 -47 c12 -16 14 -24 6 -21 -16 5 -46 48 -34 48 5 0 18 -12 28 -27z
m356 -23 c-20 -13 -33 -13 -25 0 3 6 14 10 23 10 15 0 15 -2 2 -10z m1355 -10
c-3 -5 -11 -10 -16 -10 -6 0 -7 5 -4 10 3 6 11 10 16 10 6 0 7 -4 4 -10z m55
0 c0 -5 -2 -10 -4 -10 -3 0 -8 5 -11 10 -3 6 -1 10 4 10 6 0 11 -4 11 -10z
m-30 -25 c-7 -8 -18 -15 -24 -15 -6 0 -2 7 8 15 25 19 32 19 16 0z m134 -55
c69 -60 178 -166 187 -181 6 -12 5 -20 -3 -25 -7 -4 -10 -4 -6 1 4 4 0 14 -8
23 -13 13 -19 13 -41 1 -14 -7 -37 -12 -52 -11 -26 3 -53 -16 -50 -34 5 -28
-1 -36 -16 -24 -9 7 -14 19 -11 26 3 8 0 11 -9 7 -8 -3 -12 -10 -9 -15 4 -6 1
-8 -7 -6 -8 3 -13 11 -11 17 1 7 -2 10 -7 6 -13 -7 -3 -35 13 -35 15 0 -16
-20 -31 -20 -7 0 -13 5 -13 11 0 5 5 7 10 4 6 -3 10 -1 10 5 0 7 -7 9 -17 6
-9 -4 -20 -1 -24 5 -12 20 -30 0 -19 -22 8 -14 7 -19 -1 -19 -8 0 -8 -4 1 -15
7 -8 18 -15 24 -15 6 0 4 5 -4 10 -13 8 -12 10 3 10 26 0 18 -34 -8 -38 -12
-2 -26 -12 -33 -22 -10 -16 -9 -23 6 -37 50 -52 48 -60 -3 -12 -33 31 -78 72
-100 91 -22 20 -69 61 -105 93 -36 31 -66 61 -68 66 -2 5 -9 9 -16 9 -7 0 -25
14 -41 30 -19 20 -24 30 -14 30 8 0 21 -9 29 -20 8 -11 18 -20 23 -20 5 0 14
-6 22 -12 31 -31 56 -48 68 -48 6 0 -1 12 -16 26 -32 30 -30 38 7 28 21 -5 24
-9 15 -20 -9 -11 -7 -14 9 -14 11 0 22 -5 24 -12 2 -6 12 -9 21 -5 10 4 14 12
11 22 -6 14 6 20 30 16 5 -1 5 4 -1 11 -9 10 -5 13 17 13 29 0 33 -13 12 -37
-6 -8 -9 -18 -5 -21 3 -4 0 -7 -8 -7 -11 0 -11 -2 1 -10 12 -7 8 -10 -15 -11
-16 0 -24 -3 -17 -6 6 -2 9 -10 5 -16 -5 -8 -2 -8 8 0 9 7 29 12 45 11 16 -1
40 2 53 6 30 10 19 -11 -13 -24 -16 -7 -17 -9 -4 -9 9 -1 23 6 32 14 9 9 17
11 21 5 10 -16 25 -12 25 6 0 10 -6 14 -15 11 -8 -4 -17 -1 -21 4 -3 6 -15 9
-25 6 -11 -3 -17 -1 -13 4 3 5 13 9 22 9 15 0 15 2 2 10 -12 8 -12 10 -1 10 8
0 11 3 8 7 -4 3 -16 -2 -27 -12 -10 -9 -26 -15 -34 -12 -20 8 -9 38 13 35 11
-2 15 3 13 16 -3 16 -1 18 11 8 11 -10 17 -9 27 3 11 13 9 15 -16 14 -48 -3
-66 0 -59 11 3 5 12 7 20 3 9 -3 15 1 15 10 0 8 -9 14 -22 14 -42 1 -49 3 -43
13 4 6 16 10 28 8 16 -2 21 2 19 15 -2 9 2 17 8 17 5 0 10 -4 10 -10 0 -5 10
-10 23 -10 13 0 29 -6 37 -12 11 -10 11 -9 0 6 -14 18 -13 19 7 14 13 -4 26
-2 29 3 3 5 -10 10 -28 10 -20 1 -26 3 -14 6 19 5 46 26 46 37 0 2 -17 2 -37
0 -28 -4 -34 -3 -23 5 8 5 18 7 22 5 5 -3 8 -2 7 3 -5 30 -3 29 85 -47z
m-1440 -3 c7 -19 17 -45 20 -58 6 -20 4 -19 -11 6 -9 17 -18 35 -19 40 -1 6
-5 18 -9 28 -4 9 -4 17 -1 17 3 0 12 -15 20 -33z m-3462 -19 c-7 -7 -12 -8
-12 -2 0 14 12 26 19 19 2 -3 -1 -11 -7 -17z m3116 -3 c-3 -3 -9 2 -12 12 -6
14 -5 15 5 6 7 -7 10 -15 7 -18z m1592 10 c-7 -8 -17 -15 -23 -15 -6 0 -2 7 9
15 25 19 30 19 14 0z m-1523 -21 c1 -10 5 -32 8 -49 6 -27 5 -28 -7 -10 -7 11
-13 25 -14 31 -1 6 -5 22 -9 34 -5 16 -4 21 6 18 8 -3 15 -13 16 -24z m1438
16 c3 -5 -1 -10 -10 -10 -9 0 -13 5 -10 10 3 6 8 10 10 10 2 0 7 -4 10 -10z
m-132 -15 c9 -22 -6 -24 -25 -3 -17 17 -17 18 1 18 10 0 21 -7 24 -15z m177 0
c0 -8 -9 -15 -20 -15 -17 0 -19 2 -8 15 17 19 28 19 28 0z m-1519 -34 c11 -27
-6 -19 -22 11 -8 16 -8 19 2 16 6 -2 16 -14 20 -27z m319 -23 c0 -15 4 -18 16
-14 14 5 15 4 4 -9 -11 -14 -15 -12 -30 12 -17 28 -17 48 1 38 5 -4 9 -15 9
-27z m-296 -24 c5 -14 4 -15 -9 -4 -17 14 -19 20 -6 20 5 0 12 -7 15 -16z
m266 -8 c-1 -5 4 -13 12 -17 9 -6 9 -9 1 -9 -7 0 -17 10 -24 21 -8 16 -8 20 1
17 6 -2 11 -7 10 -12z m80 -16 c0 -5 -9 -10 -21 -10 -11 0 -17 5 -14 10 3 6
13 10 21 10 8 0 14 -4 14 -10z m-313 -37 c0 -7 -4 -13 -9 -13 -4 0 -8 4 -8 9
0 5 -3 17 -7 27 -6 16 -5 17 8 4 9 -8 16 -20 16 -27z m268 -3 c3 -5 1 -10 -4
-10 -6 0 -11 5 -11 10 0 6 2 10 4 10 3 0 8 -4 11 -10z m1669 -59 c-6 -6 -34
20 -34 32 0 6 8 2 19 -9 10 -10 17 -21 15 -23z m-1908 -6 c9 -19 21 -32 26
-29 6 4 5 10 -3 15 -9 6 -10 9 -2 9 12 0 43 -27 43 -37 0 -3 -6 -3 -14 0 -17
7 -28 -17 -15 -30 5 -5 11 -25 14 -44 4 -32 3 -33 -11 -14 -8 11 -12 25 -10
32 3 7 1 15 -5 19 -6 3 -8 12 -5 20 3 8 -1 14 -9 14 -8 0 -16 5 -16 10 -1 6
-2 14 -3 19 0 5 -4 13 -8 17 -9 8 -11 34 -3 34 2 0 12 -16 21 -35z m39 7 c-3
-3 -11 0 -18 7 -9 10 -8 11 6 5 10 -3 15 -9 12 -12z m55 -32 c0 -5 -5 -10 -11
-10 -5 0 -7 5 -4 10 3 6 8 10 11 10 2 0 4 -4 4 -10z m1554 -15 c-4 -8 -11 -12
-16 -9 -6 4 -5 10 3 15 19 12 19 11 13 -6z m36 5 c0 -5 -5 -10 -11 -10 -5 0
-7 5 -4 10 3 6 8 10 11 10 2 0 4 -4 4 -10z m-110 -70 c0 -5 -7 -10 -16 -10 -8
0 -12 5 -9 10 3 6 10 10 16 10 5 0 9 -4 9 -10z m21 -33 c-13 -13 -26 -3 -16
12 3 6 11 8 17 5 6 -4 6 -10 -1 -17z m379 -37 c0 -5 -2 -10 -4 -10 -3 0 -8 5
-11 10 -3 6 -1 10 4 10 6 0 11 -4 11 -10z m30 -4 c0 -3 -4 -8 -10 -11 -5 -3
-10 -1 -10 4 0 6 5 11 10 11 6 0 10 -2 10 -4z m90 0 c0 -11 -19 -15 -25 -6 -3
5 1 10 9 10 9 0 16 -2 16 -4z m-1710 -86 c0 -5 -5 -10 -11 -10 -5 0 -7 5 -4
10 3 6 8 10 11 10 2 0 4 -4 4 -10z m13 -40 c3 -11 1 -20 -4 -20 -5 0 -9 9 -9
20 0 11 2 20 4 20 2 0 6 -9 9 -20z m-53 -4 c0 -9 -10 -13 -25 -12 -23 1 -24 2
-8 14 22 16 33 15 33 -2z m17 -37 c1 -13 -5 -23 -17 -26 -11 -3 -16 -11 -13
-19 3 -9 13 -12 27 -9 16 5 17 4 6 -3 -13 -8 -41 -9 -71 -3 -4 0 -6 11 -5 24
1 19 6 23 29 22 15 -1 30 2 33 7 3 4 -5 8 -18 9 -23 1 -23 1 2 9 14 4 25 8 25
9 1 1 1 -8 2 -20z m-127 -13 c0 -3 -4 -8 -10 -11 -5 -3 -10 -1 -10 4 0 6 5 11
10 11 6 0 10 -2 10 -4z m170 -33 c0 -12 -2 -12 -15 1 -8 8 -15 17 -15 20 0 3
7 3 15 0 8 -4 15 -13 15 -21z m-132 -2 c3 -8 -1 -12 -9 -9 -7 2 -15 10 -17 17
-3 8 1 12 9 9 7 -2 15 -10 17 -17z m-98 -1 c0 -6 -7 -13 -15 -16 -22 -9 -18
-23 5 -17 11 3 20 1 20 -5 0 -6 -8 -13 -17 -15 -13 -3 -12 -5 5 -6 13 0 21 -5
17 -10 -3 -5 -1 -12 5 -16 16 -10 12 -25 -5 -19 -8 4 -15 12 -15 20 0 8 -5 14
-10 14 -12 0 7 -41 24 -52 8 -5 7 -8 -1 -8 -7 0 -21 10 -33 22 -11 12 -21 18
-21 12 -1 -5 -2 -15 -3 -21 0 -7 -4 -13 -8 -13 -10 0 -8 -4 -18 48 -8 45 2 64
19 35 9 -15 10 -14 7 7 -2 16 -9 24 -20 24 -9 -1 -16 2 -16 8 0 5 16 6 36 2
27 -5 35 -4 30 5 -4 6 -2 11 3 11 6 0 11 -5 11 -10z m70 -25 c5 -14 14 -25 20
-25 6 0 8 -5 5 -10 -5 -8 -11 -8 -20 0 -17 14 -26 -8 -13 -32 5 -10 5 -18 0
-18 -5 0 -14 12 -20 26 -8 16 -8 23 -2 19 7 -4 9 6 7 29 -5 41 9 48 23 11z
m55 -5 c3 -6 -1 -7 -9 -4 -18 7 -21 14 -7 14 6 0 13 -4 16 -10z m-10 -40 c-7
-12 16 -14 31 -2 5 4 1 -1 -10 -11 -12 -11 -23 -14 -29 -8 -9 9 -2 31 9 31 3
0 2 -4 -1 -10z m70 -20 c3 -6 -1 -7 -9 -4 -18 7 -21 14 -7 14 6 0 13 -4 16
-10z m65 -4 c0 -3 -4 -8 -10 -11 -5 -3 -10 -1 -10 4 0 6 5 11 10 11 6 0 10 -2
10 -4z m-6140 -10 c0 -2 -8 -10 -17 -17 -16 -13 -17 -12 -4 4 13 16 21 21 21
13z m5995 -6 c3 -6 -1 -7 -9 -4 -18 7 -21 14 -7 14 6 0 13 -4 16 -10z m50 0
c3 -5 1 -10 -4 -10 -6 0 -11 5 -11 10 0 6 2 10 4 10 3 0 8 -4 11 -10z m2063
-35 c-3 -3 -9 2 -12 12 -6 14 -5 15 5 6 7 -7 10 -15 7 -18z m-338 -15 c0 -5
-4 -10 -10 -10 -5 0 -10 5 -10 10 0 6 5 10 10 10 6 0 10 -4 10 -10z m-40 -30
c0 -5 -4 -10 -10 -10 -5 0 -10 5 -10 10 0 6 5 10 10 10 6 0 10 -4 10 -10z m33
-5 c-3 -9 -8 -14 -10 -11 -3 3 -2 9 2 15 9 16 15 13 8 -4z m-53 -25 c0 -5 -2
-10 -4 -10 -3 0 -8 5 -11 10 -3 6 -1 10 4 10 6 0 11 -4 11 -10z m30 -45 c0
-19 -5 -35 -11 -35 -6 0 -9 6 -6 13 3 8 1 20 -3 27 -10 15 -4 30 11 30 5 0 9
-16 9 -35z m40 15 c0 -5 -4 -10 -10 -10 -5 0 -10 5 -10 10 0 6 5 10 10 10 6 0
10 -4 10 -10z m424 -6 c11 -28 6 -44 -11 -44 -22 1 -59 27 -50 36 3 4 13 -1
22 -10 29 -29 43 -20 25 15 -6 11 -7 19 -1 19 5 0 12 -7 15 -16z m-430 -29
c-4 -8 -10 -15 -15 -15 -4 0 -6 7 -3 15 4 8 10 15 15 15 4 0 6 -7 3 -15z m-92
-87 c-136 -140 -164 -173 -148 -176 9 -2 16 -8 16 -14 0 -5 -7 -8 -15 -4 -18
7 -54 -5 -54 -19 0 -5 -4 -11 -10 -13 -6 -2 -11 1 -11 6 0 12 50 62 61 62 5 0
9 5 9 11 0 6 21 33 48 60 26 28 67 72 92 99 25 27 51 49 59 50 7 0 -14 -28
-47 -62z m334 28 c-31 -26 -21 -43 17 -30 34 12 67 11 67 -2 0 -7 -6 -15 -12
-18 -7 -3 -3 -3 10 0 12 3 22 2 22 -1 0 -11 -84 -116 -129 -163 -22 -23 -41
-45 -41 -50 -1 -11 -99 -112 -110 -112 -15 0 -12 17 5 24 9 3 14 16 13 31 -2
20 -6 24 -23 19 -11 -4 -21 -11 -23 -15 -6 -15 -29 -10 -36 7 -4 12 -1 14 13
9 25 -8 35 9 17 28 -8 8 -12 17 -9 21 4 3 -1 6 -10 6 -9 0 -17 -4 -17 -10 0
-5 -4 -10 -10 -10 -5 0 -10 7 -10 15 0 8 3 14 8 13 13 -4 52 13 52 22 0 5 6 7
14 4 8 -3 17 0 21 5 3 6 12 8 18 4 7 -4 24 -6 39 -4 20 2 28 -2 28 -13 0 -9
-4 -16 -10 -16 -5 0 -9 -5 -7 -11 1 -6 -5 -16 -14 -22 -13 -8 -23 -4 -45 16
-16 15 -33 27 -38 27 -6 0 0 -9 12 -20 12 -12 22 -25 22 -30 0 -6 7 -10 15
-10 9 0 12 -6 9 -15 -9 -23 9 -17 31 12 11 14 27 32 37 41 9 8 14 20 12 27 -3
7 5 15 16 18 27 7 17 27 -13 27 -38 0 -66 39 -29 41 13 0 14 2 2 6 -8 4 -20
12 -27 19 -8 8 -28 11 -52 8 -22 -2 -42 -1 -45 4 -3 5 11 9 31 8 23 -1 38 4
41 13 3 10 0 11 -9 5 -11 -6 -10 -3 1 11 14 17 13 18 -3 12 -10 -4 -23 -7 -28
-7 -5 0 -8 -5 -6 -11 1 -6 -14 -12 -35 -14 -35 -4 -46 11 -23 32 4 4 5 2 1 -4
-4 -7 -3 -13 2 -13 17 0 77 23 97 37 20 14 19 15 -2 8 -15 -4 -23 -2 -23 5 0
9 11 10 36 5 24 -4 34 -3 29 4 -3 6 -2 11 4 11 5 0 13 -5 17 -11 8 -14 -16
-30 -31 -21 -5 3 -4 -2 4 -12 8 -9 20 -15 28 -12 7 3 13 1 13 -4 0 -6 5 -10
12 -10 6 0 3 9 -7 20 -17 19 -14 25 10 20 6 -1 7 2 2 6 -10 11 22 44 38 38 7
-3 16 0 20 6 4 6 10 9 13 6 3 -3 -7 -17 -22 -30z m-183 -16 c-32 -30 -50 -39
-38 -20 3 6 1 10 -5 10 -6 0 -8 5 -5 10 3 6 17 10 31 10 14 0 22 4 19 10 -3 6
2 10 12 10 14 0 11 -6 -14 -30z m-74 -3 c-28 -28 -91 -49 -70 -23 7 8 20 12
29 9 9 -3 14 -3 10 2 -11 12 11 35 35 35 19 0 19 -1 -4 -23z m-1879 9 c0 -2
-11 -6 -25 -8 -13 -3 -22 -1 -19 3 5 9 44 13 44 5z m-37 -66 c-3 -11 -7 -20
-9 -20 -2 0 -4 9 -4 20 0 11 4 20 9 20 5 0 7 -9 4 -20z m1809 -48 c-7 -2 -10
-8 -6 -13 8 -14 -18 -34 -49 -36 -24 -2 -27 0 -17 13 7 7 21 14 31 14 11 0 18
3 18 8 -4 22 3 31 18 25 11 -4 13 -8 5 -11z m248 -22 c0 -5 -2 -10 -4 -10 -3
0 -8 5 -11 10 -3 6 -1 10 4 10 6 0 11 -4 11 -10z m-233 -37 c1 -19 -1 -22 -8
-12 -8 12 -10 12 -19 -1 -5 -8 -10 -10 -10 -5 0 6 -5 3 -10 -5 -6 -9 -10 -10
-10 -3 0 8 45 53 54 53 0 0 2 -12 3 -27z m244 -11 c-7 -2 -18 1 -23 6 -8 8 -4
9 13 5 13 -4 18 -8 10 -11z m-330 -2 c21 -12 26 -30 8 -30 -7 0 -18 -8 -26
-17 -13 -15 -12 -13 0 8 14 23 13 26 -1 37 -21 14 -7 15 19 2z m195 1 c-4 -5
0 -11 6 -14 7 -2 10 -8 6 -12 -4 -4 -14 0 -22 8 -12 12 -13 17 -3 20 18 8 19
8 13 -2z m-49 -16 c0 -8 -4 -15 -9 -15 -5 0 -6 -5 -3 -10 4 -6 12 -8 18 -4 7
3 3 -2 -7 -10 -23 -18 -36 -20 -36 -6 0 6 5 10 12 10 6 0 8 3 5 6 -3 4 -2 15
4 25 12 23 16 24 16 4z m-47 -15 c8 -5 11 -12 7 -17 -5 -4 -11 -3 -15 3 -4 6
-14 14 -22 17 -13 5 -13 5 0 6 8 0 22 -3 30 -9z m-1874 -67 c-11 -11 -17 4 -9
23 7 18 8 18 11 1 2 -10 1 -21 -2 -24z m1644 21 c0 -9 -124 -124 -134 -124
-10 0 115 129 127 129 4 1 7 -2 7 -5z m77 -10 c-3 -3 -12 -4 -19 -1 -8 3 -5 6
6 6 11 1 17 -2 13 -5z m178 -14 c3 -5 1 -10 -4 -10 -6 0 -11 5 -11 10 0 6 2
10 4 10 3 0 8 -4 11 -10z m-1599 -26 c-3 -9 -6 -23 -6 -32 0 -14 -2 -14 -9 -3
-10 16 -3 51 11 51 6 0 7 -7 4 -16z m-42 -9 c-4 -8 -8 -15 -10 -15 -2 0 -4 7
-4 15 0 8 4 15 10 15 5 0 7 -7 4 -15z m1643 8 c-4 -3 -2 -12 5 -20 8 -11 7
-12 -6 -7 -9 3 -16 9 -16 13 0 9 11 21 18 21 3 0 2 -3 -1 -7z m133 -23 c-19
-12 -30 -12 -30 -1 0 10 31 20 40 14 2 -2 -2 -8 -10 -13z m-2053 -32 c-3 -8
-6 -5 -6 6 -1 11 2 17 5 13 3 -3 4 -12 1 -19z m1633 18 c0 -3 -4 -8 -10 -11
-5 -3 -10 -1 -10 4 0 6 5 11 10 11 6 0 10 -2 10 -4z m315 -27 c-10 -15 -25
-10 -19 6 4 8 10 12 15 9 5 -3 7 -10 4 -15z m95 -14 c-7 -8 -16 -15 -21 -15
-5 0 -6 7 -3 15 4 8 13 15 21 15 13 0 13 -3 3 -15z m-2043 -10 c0 -8 -6 -15
-13 -15 -8 0 -11 6 -8 15 4 8 9 15 13 15 4 0 8 -7 8 -15z m1479 -42 c-25 -26
-46 -51 -46 -55 0 -4 -6 -8 -13 -8 -8 0 -27 -16 -43 -36 -16 -19 -41 -42 -57
-50 -15 -8 -44 -31 -64 -51 l-37 -36 34 7 35 6 -35 -16 c-19 -9 -51 -23 -70
-32 -26 -12 -31 -17 -17 -20 10 -2 24 1 32 8 7 6 15 7 18 3 3 -5 -5 -13 -18
-20 -19 -8 -28 -8 -42 2 -12 9 -20 10 -29 1 -31 -29 -56 -47 -61 -43 -2 3 22
24 53 48 32 24 72 58 90 74 18 17 52 46 75 65 24 19 63 54 87 78 24 23 50 42
58 42 8 0 14 3 14 8 0 11 60 72 71 72 6 0 -10 -21 -35 -47z m-1186 11 c0 -8
-5 -12 -10 -9 -6 4 -8 11 -5 16 9 14 15 11 15 -7z m1710 1 c-7 -9 -15 -13 -17
-11 -7 7 7 26 19 26 6 0 6 -6 -2 -15z m-2000 -4 c0 -5 -9 -7 -20 -4 -11 3 -20
7 -20 9 0 2 9 4 20 4 11 0 20 -4 20 -9z m-30 -29 c0 -22 -43 -132 -52 -132 -6
0 -7 8 -3 18 4 9 11 31 16 49 6 18 14 35 19 38 5 3 7 12 3 20 -3 8 0 15 6 15
6 0 11 -4 11 -8z m1535 -32 c-3 -5 -10 -10 -16 -10 -5 0 -9 5 -9 10 0 6 7 10
16 10 8 0 12 -4 9 -10z m-1503 -25 c-2 -14 -8 -25 -12 -25 -4 0 -5 11 -2 25 2
14 8 25 12 25 4 0 5 -11 2 -25z m-4882 -5 c13 -11 21 -22 18 -25 -2 -3 -15 6
-28 20 -28 30 -22 33 10 5z m6800 16 c0 -3 -4 -8 -10 -11 -5 -3 -10 -1 -10 4
0 6 5 11 10 11 6 0 10 -2 10 -4z m-500 -31 c-7 -9 -15 -13 -19 -10 -3 3 1 10
9 15 21 14 24 12 10 -5z m418 -55 c-51 -58 -78 -79 -78 -60 0 6 -7 10 -16 10
-8 0 -12 5 -9 10 3 6 17 7 29 4 18 -4 25 -1 29 15 3 12 12 21 21 21 10 0 13 6
9 16 -4 11 -1 15 13 12 12 -2 18 2 16 10 -1 8 2 11 8 7 5 -3 10 1 10 10 0 9 5
13 10 10 6 -3 -13 -33 -42 -65z m-1611 -26 c-3 -3 -12 -4 -19 -1 -8 3 -5 6 6
6 11 1 17 -2 13 -5z m1077 -18 c-21 -15 -30 -14 -19 3 3 6 14 11 23 11 13 0
13 -2 -4 -14z m366 4 c0 -5 -8 -10 -17 -10 -15 0 -16 2 -3 10 19 12 20 12 20
0z m-6395 -20 c3 -5 1 -10 -4 -10 -6 0 -11 5 -11 10 0 6 2 10 4 10 3 0 8 -4
11 -10z m6470 -20 c3 -5 -1 -10 -10 -10 -9 0 -13 5 -10 10 3 6 8 10 10 10 2 0
7 -4 10 -10z m-1535 -7 c0 -5 -5 -15 -10 -23 -8 -12 -10 -11 -10 8 0 12 5 22
10 22 6 0 10 -3 10 -7z m1505 -32 c-3 -6 -11 -11 -16 -11 -5 0 -4 6 3 14 14
16 24 13 13 -3z m-415 -1 c0 -6 -3 -10 -7 -10 -5 0 -17 -3 -29 -6 -13 -3 -21
-1 -21 8 0 7 13 14 29 15 15 1 28 -2 28 -7z m364 -15 c14 -14 7 -24 -67 -94
-103 -99 -229 -202 -241 -198 -6 2 -12 9 -14 17 -3 9 1 11 12 7 9 -4 14 -3 11
2 -3 5 5 11 17 13 16 2 22 9 20 21 -3 15 1 17 17 12 15 -4 21 -2 21 9 0 8 -8
17 -18 20 -21 7 -25 36 -5 36 7 0 13 5 13 10 0 6 8 10 18 8 10 -2 16 2 14 11
-2 9 3 11 13 7 9 -3 21 -6 27 -6 19 0 -12 -29 -34 -32 -32 -5 -35 -28 -4 -28
16 0 26 6 26 15 0 8 7 15 15 15 9 0 18 7 21 15 4 8 13 15 22 15 8 0 13 2 10 5
-6 7 71 85 83 85 5 0 7 11 5 25 -5 29 -3 30 18 10z m-1830 -40 c-15 -23 -15
-25 2 -25 9 0 14 -3 10 -7 -10 -10 -46 -11 -46 -1 0 14 31 58 41 58 5 0 2 -11
-7 -25z m1316 11 c0 -3 -4 -8 -10 -11 -5 -3 -10 -1 -10 4 0 6 5 11 10 11 6 0
10 -2 10 -4z m443 -13 c-3 -7 -8 -13 -12 -13 -4 0 -17 -9 -28 -20 -18 -16 -22
-17 -27 -4 -4 11 1 18 14 21 16 4 18 8 9 19 -10 12 -7 14 18 12 21 -1 29 -6
26 -15z m-1706 -29 c-9 -9 -27 6 -27 22 0 13 2 13 16 -1 9 -9 14 -18 11 -21z
m1128 -30 c-42 -35 -58 -42 -49 -21 6 15 77 66 84 60 3 -3 -13 -20 -35 -39z
m-1194 6 c4 0 6 -7 3 -15 -4 -8 -14 -15 -24 -15 -10 0 -20 -7 -24 -15 -3 -8
-10 -15 -16 -15 -5 0 -2 16 7 35 11 23 22 34 31 30 7 -3 18 -5 23 -5z m49 -10
c0 -5 -4 -10 -9 -10 -6 0 -13 5 -16 10 -3 6 1 10 9 10 9 0 16 -4 16 -10z
m1657 -6 c-3 -3 -12 -4 -19 -1 -8 3 -5 6 6 6 11 1 17 -2 13 -5z m-1637 -24
c13 -8 13 -10 -2 -10 -9 0 -20 5 -23 10 -8 13 5 13 25 0z m1060 -9 c0 -5 -7
-12 -16 -15 -14 -5 -15 -4 -4 9 14 17 20 19 20 6z m-1145 -21 c3 -5 -1 -10
-10 -10 -9 0 -13 5 -10 10 3 6 8 10 10 10 2 0 7 -4 10 -10z m-55 -10 c0 -5 -4
-10 -10 -10 -5 0 -10 5 -10 10 0 6 5 10 10 10 6 0 10 -4 10 -10z m329 -37 c-5
-16 -20 -41 -34 -58 -22 -27 -23 -28 -18 -7 3 13 11 26 18 28 7 3 11 18 9 35
-3 23 0 29 16 29 16 0 18 -4 9 -27z m-359 -3 c-6 -11 -13 -20 -16 -20 -2 0 0
9 6 20 6 11 13 20 16 20 2 0 0 -9 -6 -20z m50 -10 c-6 -11 -15 -18 -20 -15 -6
4 -5 12 3 20 18 21 29 18 17 -5z m1095 10 c-3 -5 -11 -10 -16 -10 -6 0 -7 5
-4 10 3 6 11 10 16 10 6 0 7 -4 4 -10z m-4061 -15 c3 -8 1 -15 -4 -15 -6 0
-10 7 -10 15 0 8 2 15 4 15 2 0 6 -7 10 -15z m4006 -20 c0 -2 -10 -9 -22 -15
-22 -11 -22 -10 -4 4 21 17 26 19 26 11z m-70 -50 c-7 -9 -15 -13 -19 -10 -3
3 1 10 9 15 21 14 24 12 10 -5z m-729 -28 c-10 -9 -11 -8 -5 6 3 10 9 15 12
12 3 -3 0 -11 -7 -18z m1311 8 c0 -5 -5 -11 -11 -13 -6 -2 -11 4 -11 13 0 9 5
15 11 13 6 -2 11 -8 11 -13z m-612 1 c0 -2 -7 -7 -16 -10 -8 -3 -12 -2 -9 4 6
10 25 14 25 6z m-1086 -30 c-3 -8 -12 -17 -20 -20 -12 -4 -12 -2 -4 14 12 23
32 27 24 6z m1123 8 c-3 -3 -12 -4 -19 -1 -8 3 -5 6 6 6 11 1 17 -2 13 -5z
m-82 -14 c3 -5 2 -10 -4 -10 -5 0 -13 5 -16 10 -3 6 -2 10 4 10 5 0 13 -4 16
-10z m-60 -30 c-3 -5 -11 -10 -16 -10 -6 0 -7 5 -4 10 3 6 11 10 16 10 6 0 7
-4 4 -10z m-35 -28 c0 -5 -16 -14 -35 -22 -24 -9 -31 -16 -23 -22 16 -9 6 -10
-17 -2 -13 5 -8 12 22 30 41 25 53 29 53 16z m630 4 c0 -3 -4 -8 -10 -11 -5
-3 -10 -1 -10 4 0 6 5 11 10 11 6 0 10 -2 10 -4z m-1267 -23 c-7 -2 -19 -2
-25 0 -7 3 -2 5 12 5 14 0 19 -2 13 -5z m-56 -18 c0 -8 -4 -12 -9 -9 -5 3 -6
10 -3 15 9 13 12 11 12 -6z m723 -25 c0 -5 -4 -10 -9 -10 -6 0 -13 5 -16 10
-3 6 1 10 9 10 9 0 16 -4 16 -10z m374 -45 c-10 -8 -23 -14 -29 -14 -5 0 -1 6
9 14 11 8 24 15 30 15 5 0 1 -7 -10 -15z m106 11 c0 -4 -95 -66 -112 -74 -5
-2 -8 1 -8 6 0 6 20 20 45 32 25 12 45 26 45 31 0 5 7 9 15 9 8 0 15 -2 15 -4z
m-1247 -13 c-7 -2 -19 -2 -25 0 -7 3 -2 5 12 5 14 0 19 -2 13 -5z m497 -23
c-12 -8 -10 -10 10 -11 14 0 19 -3 12 -6 -6 -2 -10 -9 -6 -14 3 -5 1 -9 -5 -9
-5 0 -13 5 -16 10 -3 6 -11 10 -16 10 -6 0 -7 -5 -3 -12 4 -6 3 -8 -4 -4 -6 3
-22 1 -37 -6 -19 -8 -22 -14 -13 -21 9 -6 5 -7 -11 -3 -14 3 -31 0 -38 -6 -7
-6 -13 -6 -13 -1 0 5 10 15 23 21 12 6 42 23 67 37 42 24 82 36 50 15z m-5427
-35 c-8 -22 -22 -18 -16 5 3 11 9 17 14 15 4 -3 6 -12 2 -20z m6047 -13 c0 -4
-15 -16 -32 -27 -18 -10 -36 -23 -40 -29 -5 -8 -10 -8 -18 0 -9 9 -5 13 14 18
14 3 26 11 26 16 0 6 7 10 15 10 8 0 15 5 15 10 0 6 5 10 10 10 6 0 10 -4 10
-8z m-620 -18 c0 -2 -12 -4 -26 -4 -14 0 -23 4 -20 9 6 8 46 4 46 -5z m-5422
-28 c0 -38 -5 -46 -35 -63 -35 -20 -38 -15 -9 12 26 24 26 24 6 35 -16 9 -18
15 -10 30 6 11 19 20 29 20 15 0 19 -7 19 -34z m4412 -20 c0 -3 -4 -8 -10 -11
-5 -3 -10 -1 -10 4 0 6 5 11 10 11 6 0 10 -2 10 -4z m84 -5 c4 -5 -3 -7 -14
-4 -23 6 -26 13 -6 13 8 0 17 -4 20 -9z m1441 -1 c-3 -5 -16 -10 -28 -9 -21 0
-21 1 -2 9 28 12 37 12 30 0z m-1150 -40 c-3 -5 -10 -10 -16 -10 -5 0 -9 5 -9
10 0 6 7 10 16 10 8 0 12 -4 9 -10z m-4791 -23 c-1 -9 -2 -24 -3 -32 0 -8 -6
-15 -12 -15 -6 0 -9 7 -5 15 3 8 0 15 -7 15 -8 0 -8 3 2 9 8 5 10 14 6 21 -5
8 -3 11 6 8 8 -3 13 -12 13 -21z m4746 -17 c-24 -15 -36 -11 -14 4 10 8 21 12
24 10 2 -3 -2 -9 -10 -14z m985 -8 c-6 -7 -45 9 -45 18 0 4 11 3 24 -3 14 -7
23 -13 21 -15z m65 -1 c-13 -11 -29 -17 -35 -13 -6 4 -2 8 8 10 9 2 17 8 17
13 0 5 8 9 18 9 14 0 12 -4 -8 -19z m-1130 5 c0 -2 -7 -6 -15 -10 -8 -3 -15
-1 -15 4 0 6 7 10 15 10 8 0 15 -2 15 -4z m-2122 -34 c2 -7 -1 -12 -8 -12 -6
0 -9 4 -6 9 4 5 1 12 -4 14 -6 3 -5 4 2 3 6 -1 14 -8 16 -14z m2162 3 c-7 -8
-17 -15 -22 -15 -11 0 14 29 26 30 5 0 3 -7 -4 -15z m370 -5 c0 -5 -5 -10 -11
-10 -5 0 -7 5 -4 10 3 6 8 10 11 10 2 0 4 -4 4 -10z m680 5 c0 -2 -18 -14 -40
-25 -22 -11 -40 -16 -40 -10 0 5 7 10 15 10 8 0 15 4 15 9 0 5 8 12 18 14 26
7 32 7 32 2z m-3179 -22 c13 -16 12 -17 -3 -4 -10 7 -18 15 -18 17 0 8 8 3 21
-13z m-2588 -54 c-5 -5 -8 3 -7 19 3 37 6 41 11 13 3 -13 1 -27 -4 -32z m2622
41 c3 -5 1 -10 -4 -10 -6 0 -11 5 -11 10 0 6 2 10 4 10 3 0 8 -4 11 -10z
m2434 -7 c-14 -23 -59 -57 -65 -50 -7 6 55 67 68 67 4 0 3 -8 -3 -17z m-816
-8 c-3 -9 -8 -14 -10 -11 -3 3 -2 9 2 15 9 16 15 13 8 -4z m427 1 c0 -2 -7 -9
-15 -16 -13 -11 -14 -10 -9 4 5 14 24 23 24 12z m417 -21 c-15 -16 -19 -13
-11 9 3 9 10 13 15 10 5 -3 3 -11 -4 -19z m588 15 c-3 -5 -11 -10 -16 -10 -6
0 -7 5 -4 10 3 6 11 10 16 10 6 0 7 -4 4 -10z m-1120 -10 c3 -5 1 -10 -4 -10
-6 0 -11 5 -11 10 0 6 2 10 4 10 3 0 8 -4 11 -10z m495 -40 c0 -5 -2 -10 -4
-10 -3 0 -8 5 -11 10 -3 6 -1 10 4 10 6 0 11 -4 11 -10z m-82 -24 c-13 -13
-25 -22 -27 -20 -6 5 30 44 41 44 5 0 -2 -11 -14 -24z m-5093 -6 c3 -5 -1 -10
-10 -10 -9 0 -13 5 -10 10 3 6 8 10 10 10 2 0 7 -4 10 -10z m45 0 c0 -5 -2
-10 -4 -10 -3 0 -8 5 -11 10 -3 6 -1 10 4 10 6 0 11 -4 11 -10z m3865 -18 c-3
-3 -11 0 -18 7 -9 10 -8 11 6 5 10 -3 15 -9 12 -12z m-55 -1 c-26 -14 -70 -22
-70 -12 0 10 26 17 65 19 16 1 17 0 5 -7z m-100 -22 c0 -11 -27 -12 -34 -1 -2
4 4 9 15 9 10 1 19 -2 19 -8z m120 -4 c-7 -8 -17 -12 -22 -9 -6 4 -5 10 3 15
22 14 33 10 19 -6z m-40 -26 c13 -7 13 -8 0 -8 -8 0 -26 6 -40 15 l-25 15 25
-7 c14 -3 32 -10 40 -15z m1577 6 c-1 -5 4 -9 11 -7 6 1 12 -2 12 -7 0 -6 16
-3 36 5 20 8 39 13 42 10 5 -5 -138 -76 -152 -76 -16 0 -3 33 14 37 27 7 20
29 -7 25 -11 -2 -23 3 -26 11 -3 9 5 13 33 12 21 0 38 -4 37 -10z m48 5 c3 -5
2 -10 -4 -10 -5 0 -13 5 -16 10 -3 6 -2 10 4 10 5 0 13 -4 16 -10z m-857 -34
c-7 -8 -17 -12 -22 -9 -4 3 -2 9 5 14 22 13 31 11 17 -5z m-458 -51 c-7 -8
-17 -15 -22 -15 -6 0 -5 7 2 15 7 8 17 15 22 15 6 0 5 -7 -2 -15z m990 -85
c-8 -5 -19 -10 -25 -10 -5 0 -3 5 5 10 8 5 20 10 25 10 6 0 3 -5 -5 -10z
m-1609 -73 c-13 -13 -26 -3 -16 12 3 6 11 8 17 5 6 -4 6 -10 -1 -17z m1219
-51 c0 -3 -4 -8 -10 -11 -5 -3 -10 -1 -10 4 0 6 5 11 10 11 6 0 10 -2 10 -4z
m-66 -30 c-21 -15 -30 -14 -19 3 3 6 14 11 23 11 13 0 13 -2 -4 -14z m-1174
-11 c-7 -9 -15 -13 -17 -11 -7 7 7 26 19 26 6 0 6 -6 -2 -15z m280 -95 c0 -5
-5 -10 -11 -10 -5 0 -7 5 -4 10 3 6 8 10 11 10 2 0 4 -4 4 -10z m280 -114 c0
-2 -8 -10 -17 -17 -16 -13 -17 -12 -4 4 13 16 21 21 21 13z m-40 -36 c0 -5 -2
-10 -4 -10 -3 0 -8 5 -11 10 -3 6 -1 10 4 10 6 0 11 -4 11 -10z m-3850 -74 c0
-3 -4 -8 -10 -11 -5 -3 -10 -1 -10 4 0 6 5 11 10 11 6 0 10 -2 10 -4z m-70
-21 c0 -8 -2 -15 -4 -15 -2 0 -6 7 -10 15 -3 8 -1 15 4 15 6 0 10 -7 10 -15z
m80 -35 c-12 -8 -11 -10 5 -10 48 -1 41 -17 -7 -17 -31 0 -44 2 -30 6 13 3 23
9 23 14 -3 34 -1 41 11 29 10 -10 10 -15 -2 -22z m-150 -25 c0 -16 39 -77 53
-83 4 -2 7 -11 7 -19 0 -26 -32 8 -64 67 -22 40 -24 50 -12 50 9 0 16 -7 16
-15z m57 -1 c-3 -3 -12 -4 -19 -1 -8 3 -5 6 6 6 11 1 17 -2 13 -5z m188 -30
c41 -17 43 -30 2 -15 -13 5 -35 7 -48 4 -21 -6 -23 -5 -10 10 16 20 11 20 56
1z m-150 -3 c-3 -5 4 -13 16 -16 11 -4 19 -9 16 -11 -8 -9 -58 16 -52 26 3 5
11 10 16 10 6 0 8 -4 4 -9z m71 -47 c-9 -9 -20 -14 -23 -10 -4 3 2 13 13 20
25 18 31 12 10 -10z m151 20 c-3 -3 -12 -4 -19 -1 -8 3 -5 6 6 6 11 1 17 -2
13 -5z m-235 -16 c-9 -9 -15 -9 -24 0 -9 9 -7 12 12 12 19 0 21 -3 12 -12z
m298 2 c0 -5 -2 -10 -4 -10 -3 0 -8 5 -11 10 -3 6 -1 10 4 10 6 0 11 -4 11
-10z m137 4 c-3 -3 -12 -4 -19 -1 -8 3 -5 6 6 6 11 1 17 -2 13 -5z m56 -1 c-7
-2 -19 -2 -25 0 -7 3 -2 5 12 5 14 0 19 -2 13 -5z m64 1 c-3 -3 -12 -4 -19 -1
-8 3 -5 6 6 6 11 1 17 -2 13 -5z m56 -1 c-7 -2 -19 -2 -25 0 -7 3 -2 5 12 5
14 0 19 -2 13 -5z m104 1 c-3 -3 -12 -4 -19 -1 -8 3 -5 6 6 6 11 1 17 -2 13
-5z m151 -1 c-10 -2 -26 -2 -35 0 -10 3 -2 5 17 5 19 0 27 -2 18 -5z m55 0
c-7 -2 -19 -2 -25 0 -7 3 -2 5 12 5 14 0 19 -2 13 -5z m54 1 c-3 -3 -12 -4
-19 -1 -8 3 -5 6 6 6 11 1 17 -2 13 -5z m100 0 c-3 -3 -12 -4 -19 -1 -8 3 -5
6 6 6 11 1 17 -2 13 -5z m50 0 c-3 -3 -12 -4 -19 -1 -8 3 -5 6 6 6 11 1 17 -2
13 -5z m101 -1 c-16 -2 -40 -2 -55 0 -16 2 -3 4 27 4 30 0 43 -2 28 -4z m85 0
c-7 -2 -19 -2 -25 0 -7 3 -2 5 12 5 14 0 19 -2 13 -5z m44 1 c-3 -3 -12 -4
-19 -1 -8 3 -5 6 6 6 11 1 17 -2 13 -5z m96 -1 c-7 -2 -19 -2 -25 0 -7 3 -2 5
12 5 14 0 19 -2 13 -5z m110 0 c-7 -2 -19 -2 -25 0 -7 3 -2 5 12 5 14 0 19 -2
13 -5z m114 1 c-3 -3 -12 -4 -19 -1 -8 3 -5 6 6 6 11 1 17 -2 13 -5z m223 2
c0 -11 -19 -15 -25 -6 -3 5 1 10 9 10 9 0 16 -2 16 -4z m103 -3 c-13 -2 -33
-2 -45 0 -13 2 -3 4 22 4 25 0 35 -2 23 -4z m54 1 c-3 -3 -12 -4 -19 -1 -8 3
-5 6 6 6 11 1 17 -2 13 -5z m40 0 c-3 -3 -12 -4 -19 -1 -8 3 -5 6 6 6 11 1 17
-2 13 -5z m56 -1 c-7 -2 -21 -2 -30 0 -10 3 -4 5 12 5 17 0 24 -2 18 -5z m67
3 c0 -11 -19 -15 -25 -6 -3 5 1 10 9 10 9 0 16 -2 16 -4z m73 -3 c-7 -2 -19
-2 -25 0 -7 3 -2 5 12 5 14 0 19 -2 13 -5z m416 0 c0 -5 -4 -17 -9 -28 -6 -15
-9 -16 -9 -4 -1 9 -11 21 -23 27 -22 10 -21 11 10 11 17 1 32 -2 31 -6z
m-2685 -34 c-3 -5 -10 -7 -15 -3 -5 3 -7 10 -3 15 3 5 10 7 15 3 5 -3 7 -10 3
-15z m-4 -29 c13 -11 20 -23 17 -27 -8 -7 -47 25 -47 39 0 12 4 10 30 -12z
m2465 -80 c3 -5 15 -10 26 -10 11 0 17 -4 14 -10 -3 -5 0 -10 8 -10 8 0 17 -6
20 -14 4 -10 0 -14 -13 -13 -10 1 -16 5 -13 10 3 4 -4 11 -16 14 -12 3 -21 9
-21 14 0 5 -5 9 -11 9 -5 0 -7 -4 -4 -10 4 -6 -5 -10 -19 -10 -14 0 -26 6 -26
13 0 8 -3 8 -8 1 -4 -6 -20 -10 -37 -9 -16 2 -61 3 -99 4 -104 2 -75 10 47 13
59 1 113 6 120 10 16 10 25 10 32 -2z m-1478 -16 c-3 -3 -12 -4 -19 -1 -8 3
-5 6 6 6 11 1 17 -2 13 -5z m156 -1 c-7 -2 -21 -2 -30 0 -10 3 -4 5 12 5 17 0
24 -2 18 -5z m424 1 c-3 -3 -12 -4 -19 -1 -8 3 -5 6 6 6 11 1 17 -2 13 -5z
m506 -1 c-7 -2 -19 -2 -25 0 -7 3 -2 5 12 5 14 0 19 -2 13 -5z m1357 -58 c-13
-14 -25 -23 -28 -21 -5 6 41 55 47 50 3 -2 -6 -15 -19 -29z m-877 -13 c4 8 6
7 6 -4 1 -10 -3 -18 -8 -18 -5 0 -16 -7 -24 -15 -13 -13 -16 -13 -21 0 -3 8 0
15 7 15 8 0 7 4 -3 10 -13 9 -13 11 0 20 11 7 18 5 26 -6 9 -12 13 -12 17 -2z
m131 -63 c5 -69 -2 -89 -29 -78 -17 6 -17 8 -2 8 14 1 17 11 17 68 0 78 8 80
14 2z m-69 41 c3 -5 -1 -10 -10 -10 -9 0 -13 5 -10 10 3 6 8 10 10 10 2 0 7
-4 10 -10z m-31 -18 c3 -5 -8 -9 -25 -9 -19 0 -25 3 -17 9 17 10 35 10 42 0z
m61 -29 c1 -18 -3 -22 -19 -18 -12 2 -25 4 -29 4 -4 1 -3 10 3 22 14 26 43 21
45 -8z m305 -17 c0 -2 -7 -7 -16 -10 -8 -3 -12 -2 -9 4 6 10 25 14 25 6z m-53
-61 c0 -8 -7 -15 -14 -15 -8 0 -11 -5 -8 -10 4 -6 10 -8 15 -5 4 3 6 -4 3 -15
-6 -21 -25 -28 -20 -7 1 6 -6 11 -15 9 -23 -4 -23 3 4 33 25 29 35 31 35 10z
m-210 -30 c0 -8 -4 -15 -9 -15 -4 0 -8 7 -8 15 0 8 4 15 8 15 5 0 9 -7 9 -15z
m158 -25 c3 -5 -1 -10 -9 -10 -9 0 -16 5 -16 10 0 6 4 10 9 10 6 0 13 -4 16
-10z m-30 -20 c3 -5 1 -10 -4 -10 -6 0 -11 5 -11 10 0 6 2 10 4 10 3 0 8 -4
11 -10z m339 -21 c-52 -56 -99 -98 -109 -99 -5 0 21 29 58 65 72 68 102 88 51
34z m-84 -35 c0 -2 -7 -4 -15 -4 -8 0 -15 4 -15 10 0 5 7 7 15 4 8 -4 15 -8
15 -10z"/>
<path d="M8218 7403 c7 -3 16 -2 19 1 4 3 -2 6 -13 5 -11 0 -14 -3 -6 -6z"/>
<path d="M7910 7285 c0 -9 6 -12 15 -9 8 4 12 10 9 15 -8 14 -24 10 -24 -6z"/>
<path d="M7955 7270 c4 -6 11 -8 16 -5 14 9 11 15 -7 15 -8 0 -12 -5 -9 -10z"/>
<path d="M8085 7270 c-3 -5 -1 -10 4 -10 6 0 11 5 11 10 0 6 -2 10 -4 10 -3 0
-8 -4 -11 -10z"/>
<path d="M7465 7080 c3 -5 8 -10 11 -10 2 0 4 5 4 10 0 6 -5 10 -11 10 -5 0
-7 -4 -4 -10z"/>
<path d="M8673 7043 c9 -2 23 -2 30 0 6 3 -1 5 -18 5 -16 0 -22 -2 -12 -5z"/>
<path d="M8710 7026 c0 -2 7 -7 16 -10 8 -3 12 -2 9 4 -6 10 -25 14 -25 6z"/>
<path d="M8618 7013 c7 -3 16 -2 19 1 4 3 -2 6 -13 5 -11 0 -14 -3 -6 -6z"/>
<path d="M8830 7010 c0 -5 7 -7 15 -4 8 4 15 8 15 10 0 2 -7 4 -15 4 -8 0 -15
-4 -15 -10z"/>
<path d="M8497 6907 c-8 -5 -7 -7 3 -6 8 1 22 1 30 0 13 -1 13 -2 0 -11 -13
-9 -13 -10 0 -10 8 0 20 8 26 18 10 15 7 17 -18 17 -17 0 -35 -4 -41 -8z"/>
<path d="M8508 6853 c7 -3 16 -2 19 1 4 3 -2 6 -13 5 -11 0 -14 -3 -6 -6z"/>
<path d="M7340 7009 c-22 -6 -20 -7 13 -8 38 -1 47 3 25 11 -7 3 -24 1 -38 -3z"/>
<path d="M7350 6980 c0 -5 5 -10 10 -10 6 0 10 5 10 10 0 6 -4 10 -10 10 -5 0
-10 -4 -10 -10z"/>
<path d="M7278 6973 c7 -3 16 -2 19 1 4 3 -2 6 -13 5 -11 0 -14 -3 -6 -6z"/>
<path d="M7319 6967 c6 -8 8 -17 4 -20 -3 -4 5 -7 18 -6 13 0 18 3 12 6 -7 2
-13 11 -13 19 0 8 -7 14 -16 14 -13 0 -14 -3 -5 -13z"/>
<path d="M9176 6743 c-6 -6 11 -23 42 -41 23 -13 23 -12 7 12 -17 25 -39 39
-49 29z"/>
<path d="M9176 6692 c-3 -6 1 -13 10 -16 23 -9 28 -2 10 13 -8 7 -17 8 -20 3z"/>
<path d="M9147 6658 c-15 -12 -14 -13 13 -13 16 0 29 4 27 9 -5 16 -22 17 -40
4z"/>
<path d="M9095 6650 c3 -5 11 -10 16 -10 6 0 7 5 4 10 -3 6 -11 10 -16 10 -6
0 -7 -4 -4 -10z"/>
<path d="M9146 6598 c5 -8 2 -9 -11 -4 -14 5 -16 4 -7 -7 7 -8 9 -17 5 -20
-11 -11 6 -8 26 5 16 10 17 14 6 25 -17 16 -29 17 -19 1z"/>
<path d="M9306 6585 c-15 -12 -17 -18 -8 -27 9 -9 13 -7 18 8 4 10 12 22 18
26 7 5 7 8 1 8 -5 -1 -19 -7 -29 -15z"/>
<path d="M9193 6575 c0 -7 6 -11 14 -8 7 3 13 6 13 8 0 2 -6 5 -13 8 -8 3 -14
-1 -14 -8z"/>
<path d="M9260 6560 c0 -5 -7 -10 -15 -10 -8 0 -15 -4 -15 -10 0 -15 19 -12
36 4 16 17 18 26 4 26 -5 0 -10 -4 -10 -10z"/>
<path d="M8966 6486 c3 -9 13 -16 22 -16 8 0 13 1 11 3 -2 1 -12 9 -22 16 -15
12 -17 12 -11 -3z"/>
<path d="M9023 6485 c0 -8 9 -15 19 -15 22 0 24 16 2 24 -21 8 -21 8 -21 -9z"/>
<path d="M9042 6411 c27 -34 53 -50 44 -26 -3 9 1 18 9 21 23 9 8 22 -20 16
-15 -2 -25 0 -25 7 0 6 -7 11 -16 11 -12 0 -11 -6 8 -29z"/>
<path d="M9830 5694 c0 -8 5 -12 10 -9 6 4 8 11 5 16 -9 14 -15 11 -15 -7z"/>
<path d="M9900 5660 c-8 -15 -8 -20 2 -20 7 0 19 9 26 20 10 17 10 20 -3 20
-8 0 -19 -9 -25 -20z"/>
<path d="M9740 5660 c0 -13 11 -13 30 0 12 8 11 10 -7 10 -13 0 -23 -4 -23
-10z"/>
<path d="M9870 5611 c0 -11 -6 -22 -12 -24 -10 -4 -10 -6 -1 -6 13 -1 26 16
29 37 1 6 -2 12 -7 12 -5 0 -9 -9 -9 -19z"/>
<path d="M9788 5583 c6 -2 18 -2 25 0 6 3 1 5 -13 5 -14 0 -19 -2 -12 -5z"/>
<path d="M9670 5470 c0 -5 5 -10 11 -10 5 0 7 5 4 10 -3 6 -8 10 -11 10 -2 0
-4 -4 -4 -10z"/>
<path d="M2518 4383 c7 -3 16 -2 19 1 4 3 -2 6 -13 5 -11 0 -14 -3 -6 -6z"/>
<path d="M5150 2924 c0 -14 3 -14 15 -4 8 7 15 14 15 16 0 2 -7 4 -15 4 -8 0
-15 -7 -15 -16z"/>
<path d="M7991 7846 c2 -2 75 -40 162 -85 l158 -81 268 0 c258 0 269 1 295 21
24 19 27 27 24 72 -3 43 -7 54 -28 64 -19 10 -129 13 -454 13 -236 0 -427 -2
-425 -4z"/>
<path d="M8666 7451 c30 -27 217 -140 225 -136 5 4 9 33 9 65 0 48 -4 61 -19
70 -24 12 -229 14 -215 1z"/>
<path d="M6446 7138 c-3 -7 -7 -31 -10 -52 -6 -43 -11 -48 -74 -72 l-43 -17
-45 33 -46 33 -54 -54 c-30 -29 -54 -59 -54 -65 0 -7 11 -26 25 -42 29 -35 31
-58 8 -107 -17 -36 -22 -39 -85 -49 -24 -5 -39 -13 -43 -26 -10 -30 -3 -139 9
-149 6 -5 31 -13 56 -18 40 -8 47 -13 67 -53 12 -25 22 -48 22 -52 1 -4 -12
-23 -29 -41 -16 -19 -30 -41 -30 -49 0 -7 25 -38 55 -68 48 -47 58 -53 73 -42
72 52 71 52 121 34 49 -19 71 -48 71 -95 0 -33 29 -47 100 -47 69 0 80 6 80
47 0 47 16 72 55 89 49 20 72 18 111 -12 30 -23 36 -25 51 -13 23 19 53 49 82
81 l24 27 -31 41 c-30 41 -30 42 -15 87 16 47 31 57 96 68 l38 6 -3 87 -3 86
-44 8 c-54 9 -75 27 -90 79 -11 37 -10 42 13 70 15 17 26 38 26 48 0 9 -25 41
-55 71 l-55 54 -22 -21 c-46 -41 -65 -46 -114 -27 -48 18 -64 38 -64 78 0 52
-6 56 -91 56 -55 0 -81 -4 -83 -12z m182 -282 c111 -57 158 -193 105 -301 -86
-173 -329 -174 -409 -2 -57 123 -1 267 122 313 48 18 138 13 182 -10z"/>
<path d="M5706 6758 c-3 -29 -6 -85 -6 -124 0 -39 -3 -92 -6 -118 l-7 -46 -43
0 -43 0 -3 -42 c-3 -40 -5 -43 -35 -46 l-33 -3 0 -360 0 -359 -85 0 c-74 0
-85 2 -85 18 -1 9 -1 88 0 174 l1 157 -43 3 c-42 3 -43 4 -44 41 0 20 -5 41
-10 46 -5 5 -49 11 -99 12 l-90 3 -5 -49 c-5 -49 -5 -50 -37 -47 l-33 2 0
-344 c0 -250 -3 -345 -11 -348 -7 -2 -30 -1 -53 2 l-41 5 0 130 0 130 -40 5
c-40 5 -40 5 -43 52 -2 25 -9 48 -15 51 -7 3 -46 4 -87 3 l-75 -1 -5 -50 -5
-50 -45 -5 -44 -5 2 -120 c1 -66 -3 -127 -8 -135 -7 -12 -16 -12 -49 -4 -37
10 -41 9 -41 -7 0 -72 141 -336 256 -479 56 -70 190 -193 278 -256 104 -74
327 -189 431 -222 172 -54 258 -66 470 -66 152 -1 222 3 290 17 481 94 886
395 1094 813 53 107 60 134 33 134 -11 0 -22 7 -26 15 -4 11 -21 15 -65 15
l-60 0 -3 113 -3 112 -157 3 c-123 2 -158 0 -159 -10 0 -7 -1 -38 -2 -68 l-2
-55 -42 -3 -43 -3 0 -90 0 -89 -45 0 -45 0 0 364 0 365 -23 18 c-20 15 -42 18
-138 18 l-114 0 -3 -317 -2 -318 -26 0 c-14 0 -34 5 -45 10 -18 10 -19 23 -19
175 l0 165 -115 0 -115 0 0 -121 0 -120 -52 3 -53 3 -3 453 c-2 350 -5 454
-15 457 -6 2 -24 6 -39 9 -25 6 -28 11 -28 46 0 39 0 39 -42 42 l-43 3 -6 50
c-6 43 -18 227 -19 278 0 9 -6 17 -14 17 -9 0 -15 -18 -20 -52z"/>
<path d="M7013 6273 c-7 -2 -13 -18 -13 -34 0 -25 -6 -33 -34 -44 -31 -13 -38
-13 -65 3 -30 17 -31 17 -63 -15 l-33 -33 19 -34 c16 -31 17 -36 2 -64 -11
-21 -25 -32 -43 -34 -26 -3 -28 -7 -31 -55 -3 -51 -3 -52 30 -61 42 -11 69
-53 50 -79 -25 -36 -25 -45 7 -76 27 -28 34 -30 51 -19 45 28 106 3 112 -46 3
-25 7 -27 56 -30 48 -3 52 -1 52 20 0 29 9 42 37 57 30 15 53 14 74 -5 15 -14
20 -13 53 17 l36 31 -19 32 c-28 46 -6 90 49 98 23 3 25 8 28 55 3 51 3 52
-30 61 -20 5 -39 19 -50 39 -18 29 -18 31 3 57 l22 28 -36 36 c-35 35 -36 35
-62 18 -22 -15 -31 -15 -61 -4 -24 8 -36 20 -40 38 -11 48 -13 50 -51 49 -21
0 -44 -3 -50 -6z m115 -193 c114 -70 84 -233 -48 -255 -90 -15 -164 46 -164
135 0 28 7 58 18 74 41 63 131 84 194 46z"/>
<path d="M9646 6221 c-4 -5 -2 -12 3 -15 5 -4 12 -2 15 3 4 5 2 12 -3 15 -5 4
-12 2 -15 -3z"/>
<path d="M9750 6080 c0 -5 5 -10 10 -10 6 0 10 5 10 10 0 6 -4 10 -10 10 -5 0
-10 -4 -10 -10z"/>
<path d="M9620 6010 c0 -5 5 -10 11 -10 5 0 7 5 4 10 -3 6 -8 10 -11 10 -2 0
-4 -4 -4 -10z"/>
<path d="M9485 5969 c-10 -15 3 -25 16 -12 7 7 7 13 1 17 -6 3 -14 1 -17 -5z"/>
<path d="M9511 5953 c-7 -8 -10 -17 -7 -20 9 -9 29 13 25 25 -2 6 -10 3 -18
-5z"/>
<path d="M9385 4488 c-58 -69 -709 -728 -719 -728 -6 0 -64 56 -130 125 -65
69 -124 125 -131 125 -15 0 -145 -139 -145 -155 0 -5 92 -102 205 -215 l206
-205 132 135 c161 165 641 662 719 745 l56 60 -66 73 c-37 39 -74 72 -84 72
-9 0 -28 -15 -43 -32z"/>
<path d="M9303 3873 l-113 -121 0 -153 c0 -85 -5 -172 -11 -194 -14 -50 -84
-120 -136 -134 -26 -7 -437 -11 -1267 -11 l-1228 0 -117 -112 c-64 -62 -117
-116 -119 -120 -2 -5 610 -8 1361 -8 1329 0 1367 1 1428 20 129 39 222 122
283 250 l31 65 3 230 c2 127 2 270 0 319 l-3 89 -112 -120z"/>
</g>
</svg>
